<?xml version="1.0" encoding="UTF-8" standalone="no"?>
<!-- Created with Inkscape (http://www.inkscape.org/) -->

<svg
   width="609mm"
   height="304mm"
   viewBox="0 0 609 304"
   version="1.1"
   id="svg21762"
   inkscape:version="1.1.2 (1:1.1+202202050950+0a00cf5339)"
   sodipodi:docname="mark4_air,1.svg"
   xmlns:inkscape="http://www.inkscape.org/namespaces/inkscape"
   xmlns:sodipodi="http://sodipodi.sourceforge.net/DTD/sodipodi-0.dtd"
   xmlns="http://www.w3.org/2000/svg"
   xmlns:svg="http://www.w3.org/2000/svg">
  <sodipodi:namedview
     id="namedview21764"
     pagecolor="#ffffff"
     bordercolor="#666666"
     borderopacity="1.0"
     inkscape:pageshadow="2"
     inkscape:pageopacity="0.0"
     inkscape:pagecheckerboard="0"
     inkscape:document-units="mm"
     showgrid="false"
     width="609mm"
     inkscape:zoom="0.59152637"
     inkscape:cx="396.43203"
     inkscape:cy="561.25984"
     inkscape:window-width="2048"
     inkscape:window-height="1115"
     inkscape:window-x="1600"
     inkscape:window-y="0"
     inkscape:window-maximized="1"
     inkscape:current-layer="layer1" />
  <defs
     id="defs21759">
    <inkscape:path-effect
       effect="bspline"
       id="path-effect10780"
       is_visible="true"
       lpeversion="1"
       weight="33.333333"
       steps="2"
       helper_size="0"
       apply_no_weight="true"
       apply_with_weight="true"
       only_selected="false" />
    <inkscape:path-effect
       effect="bspline"
       id="path-effect10969"
       is_visible="true"
       lpeversion="1"
       weight="33.333333"
       steps="2"
       helper_size="0"
       apply_no_weight="true"
       apply_with_weight="true"
       only_selected="false" />
    <inkscape:path-effect
       effect="powerstroke"
       id="path-effect10971"
       is_visible="true"
       lpeversion="1"
       offset_points="0,4.99214"
       not_jump="false"
       sort_points="true"
       interpolator_type="CubicBezierJohan"
       interpolator_beta="0.2"
       start_linecap_type="zerowidth"
       linejoin_type="extrp_arc"
       miter_limit="4"
       scale_width="1"
       end_linecap_type="zerowidth" />
    <inkscape:path-effect
       effect="bspline"
       id="path-effect11969"
       is_visible="true"
       lpeversion="1"
       weight="33.333333"
       steps="2"
       helper_size="0"
       apply_no_weight="true"
       apply_with_weight="true"
       only_selected="false" />
    <inkscape:path-effect
       effect="powerstroke"
       id="path-effect11971"
       is_visible="true"
       lpeversion="1"
       offset_points="0,4.99214"
       not_jump="false"
       sort_points="true"
       interpolator_type="CubicBezierJohan"
       interpolator_beta="0.2"
       start_linecap_type="zerowidth"
       linejoin_type="extrp_arc"
       miter_limit="4"
       scale_width="1"
       end_linecap_type="zerowidth" />
    <inkscape:path-effect
       effect="bspline"
       id="path-effect12221"
       is_visible="true"
       lpeversion="1"
       weight="33.333333"
       steps="2"
       helper_size="0"
       apply_no_weight="true"
       apply_with_weight="true"
       only_selected="false" />
    <inkscape:path-effect
       effect="bspline"
       id="path-effect12225"
       is_visible="true"
       lpeversion="1"
       weight="33.333333"
       steps="2"
       helper_size="0"
       apply_no_weight="true"
       apply_with_weight="true"
       only_selected="false" />
    <inkscape:path-effect
       effect="bspline"
       id="path-effect12229"
       is_visible="true"
       lpeversion="1"
       weight="33.333333"
       steps="2"
       helper_size="0"
       apply_no_weight="true"
       apply_with_weight="true"
       only_selected="false" />
    <inkscape:path-effect
       effect="bspline"
       id="path-effect12233"
       is_visible="true"
       lpeversion="1"
       weight="33.333333"
       steps="2"
       helper_size="0"
       apply_no_weight="true"
       apply_with_weight="true"
       only_selected="false" />
    <inkscape:path-effect
       effect="bspline"
       id="path-effect20479"
       is_visible="true"
       lpeversion="1"
       weight="33.333333"
       steps="2"
       helper_size="0"
       apply_no_weight="true"
       apply_with_weight="true"
       only_selected="false" />
    <inkscape:path-effect
       effect="bspline"
       id="path-effect20483"
       is_visible="true"
       lpeversion="1"
       weight="33.333333"
       steps="2"
       helper_size="0"
       apply_no_weight="true"
       apply_with_weight="true"
       only_selected="false" />
    <inkscape:path-effect
       effect="bspline"
       id="path-effect20487"
       is_visible="true"
       lpeversion="1"
       weight="33.333333"
       steps="2"
       helper_size="0"
       apply_no_weight="true"
       apply_with_weight="true"
       only_selected="false" />
    <inkscape:path-effect
       effect="bspline"
       id="path-effect20491"
       is_visible="true"
       lpeversion="1"
       weight="33.333333"
       steps="2"
       helper_size="0"
       apply_no_weight="true"
       apply_with_weight="true"
       only_selected="false" />
  </defs>
  <g
     inkscape:label="Ebene 1"
     inkscape:groupmode="layer"
     id="layer1">
    <path
       style="fill:none;stroke:#000000;stroke-width:0.264583px;stroke-linecap:butt;stroke-linejoin:miter;stroke-opacity:1"
       d="M 50.505103,128.14594 C 27.825769,105.4669 27.825769,60.108548 50.505557,37.429229 73.185344,14.74991 118.54282,14.74991 141.22186,37.429682 c 22.67904,22.679772 22.67904,68.037218 -4.6e-4,90.716258 -22.67949,22.67904 -68.036962,22.67904 -90.716297,0 z"
       id="path10778"
       inkscape:path-effect="#path-effect10780"
       inkscape:original-d="m 27.825769,150.82498 c 2.88e-4,-45.35808 2.88e-4,-90.716432 0,-136.07507 45.359575,2.88e-4 90.717051,2.88e-4 136.075131,0 2.9e-4,45.359544 2.9e-4,90.71699 0,136.07507 -45.35899,2.8e-4 -90.716462,2.8e-4 -136.075131,0 z" />
    <path
       style="fill:none;fill-rule:nonzero;stroke:none;stroke-width:0.264583px;stroke-linecap:butt;stroke-linejoin:miter;stroke-opacity:1"
       d="M 53.981162,39.901796 C 49.341628,44.59176 45.03702,50.98182 42.051398,59.281508 c -2.404439,6.684064 -3.888451,14.495416 -3.888423,22.881253 2.5e-5,7.401768 1.160969,15.298942 3.888595,22.881199 2.509949,6.97717 6.387956,13.77745 11.930034,19.37958 5.260949,5.31796 11.844802,9.37067 19.196534,12.07306 7.072941,2.59991 14.831056,3.93931 22.685815,3.93928 7.667627,-2e-5 15.450137,-1.27966 22.685697,-3.93945 7.15539,-2.63031 13.80569,-6.62413 19.19623,-12.07337 5.38932,-5.44801 9.33348,-12.16274 11.92958,-19.37964 2.62558,-7.298858 3.88839,-15.148232 3.88837,-22.881035 -3e-5,-7.921799 -1.32178,-15.745859 -3.88854,-22.881018 -2.66745,-7.415053 -6.66998,-14.062578 -11.92984,-19.37958 -5.54339,-5.603615 -12.27851,-9.530278 -19.19642,-12.073255 -7.51656,-2.763037 -15.34641,-3.939379 -22.685756,-3.93938 -8.314793,-1e-6 -16.060089,1.503827 -22.685751,3.939381 -8.227945,3.024545 -14.556649,7.383121 -19.196361,12.073263 z m 7.09801,7.021689 c 3.611415,-3.650669 8.693692,-7.205941 15.543146,-9.72376 5.535044,-2.03465 12.091493,-3.326294 19.240955,-3.326293 6.302217,0 12.950337,1.013901 19.240967,3.326294 5.79091,2.128698 11.20162,5.335003 15.54322,9.723769 4.11412,4.158815 7.39357,9.512429 9.63295,15.737514 2.15504,5.990644 3.29912,12.669206 3.29914,19.501409 2e-5,6.670949 -1.09281,13.36843 -3.299,19.501422 -2.18151,6.06439 -5.41362,11.47253 -9.63276,15.73761 -4.21791,4.26384 -9.55998,7.52446 -15.54298,9.7238 -6.05177,2.22463 -12.65964,3.32633 -19.240891,3.32635 -6.740341,3e-5 -13.329613,-1.15326 -19.241034,-3.32621 -6.141832,-2.25765 -11.430221,-5.56592 -15.543387,-9.72365 -4.343057,-4.39012 -7.521463,-9.86764 -9.63306,-15.73746 -2.293343,-6.375046 -3.299161,-13.113349 -3.299183,-19.501553 -2.5e-5,-7.246948 1.281241,-13.892359 3.299043,-19.501619 2.497135,-6.941749 6.021281,-12.086775 9.632874,-15.737623 z"
       id="path10967"
       inkscape:path-effect="#path-effect10969;#path-effect10971"
       inkscape:original-d="m 38.363367,24.037509 c 2.65e-4,38.750263 2.65e-4,77.500261 0,116.250001 38.334367,2.6e-4 76.666933,2.6e-4 115.000003,0 2.7e-4,-38.75051 2.7e-4,-77.499738 0,-116.250001 -38.33383,2.65e-4 -76.666403,2.65e-4 -115.000003,0 z" />
    <path
       style="fill:none;fill-rule:nonzero;stroke:none;stroke-width:0.264583px;stroke-linecap:butt;stroke-linejoin:miter;stroke-opacity:1"
       d="m 53.981186,124.42351 c 4.639726,4.69009 10.968474,9.04861 19.196489,12.0731 6.625718,2.43551 14.371087,3.9393 22.685948,3.93927 7.339397,-2e-5 15.169317,-1.17638 22.685897,-3.93944 6.91793,-2.543 13.65304,-6.4697 19.19636,-12.07338 5.25975,-5.31703 9.2622,-11.96458 11.92957,-19.37962 2.56671,-7.135191 3.8884,-14.959256 3.88838,-22.881055 -3e-5,-7.732802 -1.26289,-15.582172 -3.88854,-22.881023 -2.59617,-7.21689 -6.54041,-13.931599 -11.92984,-19.379576 -5.39063,-5.44919 -12.04099,-9.442967 -19.19642,-12.073249 -7.23561,-2.659753 -15.01814,-3.939363 -22.685779,-3.939337 -7.854767,2.7e-5 -15.612872,1.339498 -22.685758,3.939508 -7.351723,2.702514 -13.935513,6.75537 -19.196364,12.07351 -5.541932,5.602281 -9.419846,12.402606 -11.929734,19.379773 -2.72756,7.582263 -3.888467,15.479378 -3.888468,22.88108 -1e-6,8.385759 1.484026,16.197014 3.888474,22.880989 2.985635,8.29958 7.29025,14.68955 11.929785,19.37945 z m 7.097962,-7.02174 c -3.611592,-3.6508 -7.135731,-8.79573 -9.632865,-15.73736 -2.017803,-5.609166 -3.299077,-12.254469 -3.299076,-19.501338 10e-7,-6.388134 1.005785,-13.126396 3.299082,-19.501466 2.111555,-5.869849 5.289912,-11.34747 9.632918,-15.737769 4.113076,-4.157866 9.401382,-7.466232 15.54313,-9.723955 5.911379,-2.173037 12.500613,-3.326379 19.240948,-3.326402 6.581235,-2.2e-5 13.189135,1.101649 19.240965,3.326254 5.98305,2.199325 11.3252,5.459924 15.54321,9.723761 4.21922,4.26505 7.45139,9.673158 9.63295,15.737529 2.20624,6.132974 3.29912,12.830445 3.29914,19.501394 2e-5,6.832202 -1.14401,13.510776 -3.299,19.501422 -2.23933,6.22512 -5.51871,11.57876 -9.63275,15.73761 -4.34149,4.38876 -9.75217,7.59508 -15.54309,9.7238 -6.29064,2.31241 -12.93883,3.32633 -19.241121,3.32635 -7.149549,3e-5 -13.706089,-1.29159 -19.241197,-3.32621 -6.849537,-2.51779 -11.931842,-6.07301 -15.543244,-9.72362 z"
       id="path11967"
       inkscape:path-effect="#path-effect11969;#path-effect11971"
       inkscape:original-d="m 38.363367,140.28751 c 38.3336,2.6e-4 76.666933,2.6e-4 115.000003,0 2.7e-4,-38.75051 2.7e-4,-77.499738 0,-116.250001 -38.33383,2.65e-4 -76.666403,2.65e-4 -115.000003,0 2.65e-4,38.751038 2.65e-4,77.500261 0,116.250001 z" />
    <path
       style="fill:none;stroke:#000000;stroke-width:0.264583px;stroke-linecap:butt;stroke-linejoin:miter;stroke-opacity:1"
       d="m 36.696833,81.954305 c -0.416534,-0.416798 -1.249868,-0.416798 -1.666667,9e-6 -0.416798,0.416807 -0.416798,1.250123 9e-6,1.666658 0.416807,0.416535 1.250124,0.416535 1.666658,-8e-6 0.416535,-0.416543 0.416535,-1.249861 0,-1.666659 z"
       id="path12219"
       inkscape:path-effect="#path-effect12221"
       inkscape:original-d="m 37.113368,81.537507 c -0.833069,2.64e-4 -1.666403,2.64e-4 -2.5,0 2.64e-4,0.833614 2.64e-4,1.66693 0,2.5 0.833614,2.64e-4 1.666931,2.64e-4 2.5,0 2.64e-4,-0.833086 2.64e-4,-1.666404 0,-2.5 z" />
    <path
       style="fill:none;stroke:#000000;stroke-width:0.264583px;stroke-linecap:butt;stroke-linejoin:miter;stroke-opacity:1"
       d="m 95.030167,141.95431 c -0.4168,0.4168 -0.4168,1.25013 7e-6,1.66666 0.416808,0.41654 1.250123,0.41654 1.666658,-1e-5 0.416535,-0.41654 0.416535,-1.24985 -8e-6,-1.66665 -0.416542,-0.4168 -1.249858,-0.4168 -1.666657,0 z"
       id="path12223"
       inkscape:path-effect="#path-effect12225"
       inkscape:original-d="m 94.613367,141.53751 c 2.65e-4,0.8336 2.65e-4,1.66693 0,2.5 0.833615,2.6e-4 1.66693,2.6e-4 2.5,0 2.65e-4,-0.83309 2.65e-4,-1.6664 0,-2.5 -0.833085,2.6e-4 -1.666401,2.6e-4 -2.5,0 z" />
    <path
       style="fill:none;stroke:#000000;stroke-width:0.264583px;stroke-linecap:butt;stroke-linejoin:miter;stroke-opacity:1"
       d="m 156.69684,81.954305 c -0.41654,-0.416798 -1.24987,-0.416798 -1.66667,9e-6 -0.4168,0.416807 -0.4168,1.250123 1e-5,1.666658 0.41681,0.416535 1.25012,0.416535 1.66665,-8e-6 0.41654,-0.416543 0.41654,-1.249861 1e-5,-1.666659 z"
       id="path12227"
       inkscape:path-effect="#path-effect12229"
       inkscape:original-d="m 157.11337,81.537507 c -0.83307,2.64e-4 -1.6664,2.64e-4 -2.5,0 2.7e-4,0.833614 2.7e-4,1.66693 0,2.5 0.83362,2.64e-4 1.66693,2.64e-4 2.5,0 2.7e-4,-0.833086 2.7e-4,-1.666404 0,-2.5 z" />
    <path
       style="fill:none;stroke:#000000;stroke-width:0.264583px;stroke-linecap:butt;stroke-linejoin:miter;stroke-opacity:1"
       d="m 96.696832,21.954308 c -0.416535,-0.416799 -1.249866,-0.416799 -1.666665,8e-6 -0.4168,0.416808 -0.4168,1.250125 7e-6,1.666659 0.416808,0.416534 1.250123,0.416534 1.666658,-9e-6 0.416535,-0.416542 0.416535,-1.249859 0,-1.666658 z"
       id="path12231"
       inkscape:path-effect="#path-effect12233"
       inkscape:original-d="m 97.113367,21.537509 c -0.83307,2.65e-4 -1.666401,2.65e-4 -2.5,0 2.65e-4,0.833615 2.65e-4,1.666932 0,2.5 0.833615,2.65e-4 1.66693,2.65e-4 2.5,0 2.65e-4,-0.833085 2.65e-4,-1.666402 0,-2.5 z" />
    <path
       style="fill:none;stroke:#000000;stroke-width:0.264583px;stroke-linecap:butt;stroke-linejoin:miter;stroke-opacity:1"
       d="m 96.863499,30.787641 c -0.499868,-0.500132 -1.499866,-0.500132 -1.999999,10e-6 -0.500133,0.500142 -0.500133,1.500122 9e-6,1.99999 0.500142,0.499868 1.500122,0.499868 1.99999,-1e-5 0.499868,-0.499878 0.499868,-1.499858 0,-1.99999 z"
       id="path20477"
       inkscape:path-effect="#path-effect20479"
       inkscape:original-d="m 97.363367,30.287509 c -0.999736,2.65e-4 -1.999734,2.65e-4 -3,0 2.65e-4,1.000284 2.65e-4,2.000264 0,3 1.000284,2.64e-4 2.000264,2.64e-4 3,0 2.64e-4,-0.999756 2.64e-4,-1.999736 0,-3 z" />
    <path
       style="fill:none;stroke:#000000;stroke-width:0.264583px;stroke-linecap:butt;stroke-linejoin:miter;stroke-opacity:1"
       d="m 43.8635,81.787639 c -0.500132,0.500131 -0.500132,1.500131 1.1e-5,1.999999 0.500142,0.499868 1.500122,0.499868 1.999989,-1e-5 0.499868,-0.499879 0.499868,-1.499858 -1e-5,-1.999989 -0.499877,-0.500132 -1.499857,-0.500132 -1.99999,0 z"
       id="path20481"
       inkscape:path-effect="#path-effect20483"
       inkscape:original-d="m 43.363368,81.287507 c 2.65e-4,1.000263 2.65e-4,2.000263 0,2.999999 1.000285,2.65e-4 2.000265,2.65e-4 3,0 2.65e-4,-0.999757 2.65e-4,-1.999736 0,-2.999999 -0.999755,2.65e-4 -1.999735,2.65e-4 -3,0 z" />
    <path
       style="fill:none;stroke:#000000;stroke-width:0.264583px;stroke-linecap:butt;stroke-linejoin:miter;stroke-opacity:1"
       d="m 94.8635,132.78764 c -0.500133,0.50013 -0.500133,1.50013 9e-6,2 0.500142,0.49987 1.500122,0.49987 1.99999,-1e-5 0.499868,-0.49988 0.499868,-1.49986 -9e-6,-1.99999 -0.499878,-0.50013 -1.499857,-0.50013 -1.99999,0 z"
       id="path20485"
       inkscape:path-effect="#path-effect20487"
       inkscape:original-d="m 94.363367,132.28751 c 2.65e-4,1.00026 2.65e-4,2.00026 0,3 1.000284,2.6e-4 2.000264,2.6e-4 3,0 2.64e-4,-0.99976 2.64e-4,-1.99974 0,-3 -0.999755,2.6e-4 -1.999734,2.6e-4 -3,0 z" />
    <path
       style="fill:none;stroke:#000000;stroke-width:0.264583px;stroke-linecap:butt;stroke-linejoin:miter;stroke-opacity:1"
       d="m 147.86351,81.787639 c -0.49987,-0.500132 -1.49987,-0.500132 -2.00001,1e-5 -0.50013,0.500142 -0.50013,1.500121 1e-5,1.999989 0.50015,0.499868 1.50013,0.499868 1.99999,-1e-5 0.49987,-0.499879 0.49987,-1.499858 1e-5,-1.999989 z"
       id="path20489"
       inkscape:path-effect="#path-effect20491"
       inkscape:original-d="m 148.36337,81.287507 c -0.99973,2.65e-4 -1.99973,2.65e-4 -3,0 2.7e-4,1.000284 2.7e-4,2.000263 0,2.999999 1.00029,2.65e-4 2.00027,2.65e-4 3,0 2.7e-4,-0.999757 2.7e-4,-1.999736 0,-2.999999 z" />
    <path
       style="fill:none;stroke:#000000;stroke-width:0.264583px;stroke-linecap:butt;stroke-linejoin:miter;stroke-opacity:1"
       d="m 91.363368,128.28751 c 2.65e-4,3.66693 0,11 0,11 h 9.000002 v -11 h -9.000002"
       id="path21000" />
    <path
       style="fill:none;stroke:#000000;stroke-width:0.264583px;stroke-linecap:butt;stroke-linejoin:miter;stroke-opacity:1"
       d="m 100.36337,27.287509 v 9 h -9.000002 v -9 z"
       id="path21002" />
    <path
       style="fill:none;stroke:#000000;stroke-width:0.264583px;stroke-linecap:butt;stroke-linejoin:miter;stroke-opacity:1"
       d="m 41.363368,87.287506 h 7 v -9.000001 h -7 v 9.000001"
       id="path21004" />
    <path
       style="fill:none;stroke:#000000;stroke-width:0.264583px;stroke-linecap:butt;stroke-linejoin:miter;stroke-opacity:1"
       d="m 152.36337,87.287506 v -9.000001 h -11 v 9.000001 z"
       id="path21041" />
  </g>
</svg>
